<svg xmlns="http://www.w3.org/2000/svg" version="1.1" x="0px" y="0px" viewBox="0 0 100 100"
     enable-background="new 0 0 100 100" xml:space="preserve"><g fill="#4F46E5"><g fill="#4F46E5"><path stroke="#4F46E5" stroke-width="3" d="M43.692,60.428L31.006,73.113c-4.615,4.613-12.454,4.285-17.474-0.734c-5.02-5.021-5.35-12.857-0.734-17.475    l14.374-14.374c4.615-4.615,12.454-4.285,17.474,0.734c2.137,2.137,3.415,4.783,3.832,7.475c1.86-0.194,3.614-0.956,4.979-2.32    l0.529-0.529c-0.848-3.222-2.537-6.307-5.099-8.867c-7.359-7.36-19.004-7.689-25.958-0.734L8.556,50.662    c-6.955,6.953-6.625,18.6,0.734,25.959s19.004,7.688,25.959,0.734l14.373-14.373c0.814-0.814,1.521-1.699,2.136-2.629    C49.121,60.895,46.383,60.906,43.692,60.428z"/><path
        stroke="#4F46E5" stroke-width="3" d="M47.502,11.717L33.127,26.091c-0.816,0.816-1.522,1.701-2.138,2.632c2.637-0.54,5.376-0.557,8.065-0.075l12.689-12.689    c4.614-4.615,12.454-4.285,17.474,0.735s5.35,12.858,0.734,17.473L55.578,48.541c-4.615,4.615-12.453,4.286-17.474-0.734    c-2.137-2.137-3.415-4.785-3.832-7.477c-1.86,0.193-3.615,0.959-4.979,2.322l-0.529,0.529c0.848,3.223,2.537,6.307,5.099,8.868    c7.359,7.359,19.004,7.688,25.958,0.734L74.193,38.41c6.955-6.955,6.625-18.599-0.733-25.958S54.456,4.762,47.502,11.717z"/></g><path
        d="M77.001,58.611c-11.047,0-20,8.955-20,20s8.953,20.002,20,20.002C88.047,98.613,97,89.656,97,78.611   S88.047,58.611,77.001,58.611z M88.751,82.732h-7.397v7.428c0,2.336-1.894,4.227-4.229,4.227s-4.229-1.891-4.229-4.227v-7.428   h-7.398c-2.333,0-4.227-1.895-4.227-4.229c0-2.334,1.894-4.228,4.227-4.228h7.398v-7.369c0-2.334,1.894-4.227,4.229-4.227   s4.229,1.893,4.229,4.227v7.369h7.397c2.335,0,4.229,1.894,4.229,4.228C92.979,80.839,91.086,82.732,88.751,82.732z"/></g></svg>